<svg xmlns="http://www.w3.org/2000/svg" version="1.1" xmlns:xlink="http://www.w3.org/1999/xlink" xmlns:svgjs="http://svgjs.dev/svgjs" width="1500" height="1500" viewBox="0 0 1500 1500"><rect width="1500" height="1500" fill="#ffffff"></rect><g transform="matrix(0.6666666666666666,0,0,0.6666666666666666,249.39436519522388,638.6904907808929)"><svg viewBox="0 0 396 88" data-background-color="#ffffff" preserveAspectRatio="xMidYMid meet" height="333" width="1500" xmlns="http://www.w3.org/2000/svg" xmlns:xlink="http://www.w3.org/1999/xlink"><g id="tight-bounds" transform="matrix(1,0,0,1,0.24008861730862918,0.12268833910550825)"><svg viewBox="0 0 395.52 87.75456866328257" height="87.75456866328257" width="395.52"><g><svg viewBox="0 0 395.52 87.75456866328257" height="87.75456866328257" width="395.52"><g><svg viewBox="0 0 395.52 87.75456866328257" height="87.75456866328257" width="395.52"><g id="textblocktransform"><svg viewBox="0 0 395.52 87.75456866328257" height="87.75456866328257" width="395.52" id="textblock"><g><svg viewBox="0 0 395.52 87.75456866328257" height="87.75456866328257" width="395.52"><path d="M394.594 18.822C392.735 9.713 387.435 7.181 387.435 7.181 371.165-2.202 350.86-0.179 332.619 1.169 300.414 1.223 268.339 3.227 236.208 4.302 168.767 4.466 100.749 1.77 33.643 8.419 27.339 10.46-6.54 8.82 1.121 19.988 3.129 24.633 10.456 29.789 10.232 34.052 11.236 34.799 12.631 33.086 13.226 34.161 15.309 37.058 18.711 35.691 21.501 37.404 17.614 41.976 20.403 45.784 23.062 49.774 18.377 50.812 12.371 50.32 9.675 53.763 9.396 56.259 7.89 55.786 6.235 55.676 5.026 55.603 2.59 55.877 2.999 56.66 4.394 59.338-1.594 60.887 2.162 63.51-0.422 66.352 3.948 68.811 3.353 71.89 3.278 72.509 3.687 73.038 4.338 73.184 7.22 73.967 3.018 75.497 3.464 77.155 33.029 88.486 65.104 80.653 95.394 85.863 103.259 82.22 97.346 87.157 100.489 86.391 102.943 85.499 104.728 89.197 107.499 87.102 107.927 86.501 107.276 85.08 108.8 85.353 109.6 85.499 110.307 85.462 110.418 84.624 110.586 83.367 109.117 84.151 108.726 83.495 112.947 80.179 111.906 88.067 115.866 87.74 115.68 86.774 114.528 85.389 116.889 85.572 119.232 84.187 119.306 83.039 121.389 86.155 121.463 86.829 121.835 87.302 122.43 87.63 128.938 84.242 135.409 88.833 142.233 87.302 146.417 85.626 150.433 88.213 154.672 87.576 156.16 87.066 157.666 86.155 159.098 87.685 176.632 88.013 195.319 86.646 211.943 87.74 256.364 85.699 303.836 88.578 350.674 85.881 361.719 84.843 373.192 83.367 383.958 82.183 383.958 82.183 392.679 78.94 392.679 64.366S394.538 51.614 394.817 40.009C395.096 28.404 396.398 27.931 394.538 18.822Z" opacity="1" fill="#556970" data-fill-palette-color="tertiary"></path><g transform="matrix(1,0,0,1,55.76832,26.230666666666668)"><svg width="283.98335999999995" viewBox="1.8267881888920003 -34.8 368.88321181110797 45.85" height="35.29323532994923" data-palette-color="#ffffff"><path d="M7.35-1.2L7.35-1.2 6.15-8.75Q8-13.55 9.93-17.07 11.85-20.6 13.85-22.55 15.85-24.5 17.9-24.5L17.9-24.5Q19.05-24.5 19.55-23.78 20.05-23.05 20.05-21.95L20.05-21.95Q20.05-20.95 19.83-20.03 19.6-19.1 19.18-18.5 18.75-17.9 18.15-17.9L18.15-17.9Q17.6-17.9 16.93-18.25 16.25-18.6 15.1-18.6L15.1-18.6Q14.35-18.6 13.2-17.05 12.05-15.5 10.83-12.93 9.6-10.35 8.65-7.28 7.7-4.2 7.35-1.2ZM3.15 0.7L3.15 0.7Q2.5 0.7 2.18 0.48 1.85 0.25 1.83-0.7 1.8-1.65 2.05-3.75L2.05-3.75 4.4-24.55 7.9-24.55Q8.65-24.55 9.25-23.45 9.85-22.35 9.85-20.95L9.85-20.95Q9.85-20.3 9.47-18.93 9.1-17.55 8.6-16.03 8.1-14.5 7.7-13.35L7.7-13.35 6.4-9.25 8.25-9.55 7.35-1.2Q7.3-0.7 6.75-0.33 6.2 0.05 5.48 0.28 4.75 0.5 4.1 0.6 3.45 0.7 3.15 0.7ZM24.45 0.8L24.45 0.8Q21.65 0.8 20.45-1.48 19.25-3.75 19.25-7.85L19.25-7.85Q19.25-11.5 20.32-14.55 21.4-17.6 23.25-19.83 25.1-22.05 27.55-23.28 30-24.5 32.75-24.5L32.75-24.5Q34.9-24.5 36.67-23.93 38.45-23.35 39.7-22.75L39.7-22.75 38.25-17.5Q36.9-18.4 35.22-19.15 33.55-19.9 32.12-20.33 30.7-20.75 30-20.75L30-20.75Q28.6-20.75 27.42-19.38 26.25-18 25.57-15.58 24.9-13.15 24.9-10L24.9-10Q24.9-7.1 25.32-5.6 25.75-4.1 26.7-4.1L26.7-4.1Q27.35-4.1 28.9-5.58 30.45-7.05 32.65-10.5 34.85-13.95 37.3-19.85L37.3-19.85 38.7-15.4Q36-9.4 33.55-5.85 31.1-2.3 28.85-0.75 26.6 0.8 24.45 0.8ZM39.9 0.5L36.4 0.5Q35.4 0.5 35.2-0.48 35-1.45 35-2.55L35-2.55Q35-3.4 35.22-4.65 35.45-5.9 35.8-7.35 36.15-8.8 36.55-10.2L36.55-10.2 37.65-13.95 36.2-15.25 37.4-22.8Q39-23.05 40.22-23.45 41.45-23.85 42.27-24.15 43.1-24.45 43.45-24.45L43.45-24.45Q44-24.45 44-23.85L44-23.85Q44-23.6 43.37-21.73 42.75-19.85 42.02-16.95 41.3-14.05 40.95-10.65L40.95-10.65 39.9 0.5ZM42.45 11.05L42.45 11.05Q41.2 11.05 40.22 10.4 39.25 9.75 38.7 8.55 38.15 7.35 38.15 5.75L38.15 5.75Q38.15 5.25 38.37 5.03 38.6 4.8 38.8 4.8L38.8 4.8Q39.05 4.8 39.35 5.03 39.65 5.25 40.3 5.65L40.3 5.65Q41.3 6.25 42.52 6.78 43.75 7.3 44.6 7.3L44.6 7.3Q45.15 7.3 45.6 6.78 46.05 6.25 46.42 4.95 46.8 3.65 47.15 1.33 47.5-1 47.85-4.6L47.85-4.6 49.8-24.55 53.4-24.55Q54-24.55 54.45-23.9 54.9-23.25 55.12-22.43 55.35-21.6 55.35-20.95L55.35-20.95Q55.35-19.8 55-17.73 54.65-15.65 54.2-12.75 53.75-9.85 53.4-6.1L53.4-6.1 52.85 0.05Q52.5 3.9 51.05 6.35 49.6 8.8 47.37 9.93 45.15 11.05 42.45 11.05ZM53.1-27.4L53.1-27.4Q51.7-27.4 50.67-28.35 49.65-29.3 49.65-30.85L49.65-30.85Q49.65-32.7 50.85-33.73 52.05-34.75 53.6-34.75L53.6-34.75Q55.05-34.75 56.02-33.9 57-33.05 57-31.35L57-31.35Q57-29.65 55.85-28.53 54.7-27.4 53.1-27.4ZM65.49 0.8L65.49 0.8Q61.64 0.8 59.54-1.63 57.44-4.05 57.44-8.3L57.44-8.3Q57.44-11.85 58.44-14.8 59.44-17.75 61.24-19.95 63.04-22.15 65.47-23.35 67.89-24.55 70.74-24.55L70.74-24.55Q74.14-24.55 75.94-23.1 77.74-21.65 77.74-18.95L77.74-18.95Q77.74-16.2 75.92-14.15 74.09-12.1 70.67-10.65 67.24-9.2 62.49-8.2L62.49-8.2 61.84-11.2Q64.59-11.55 66.89-12.4 69.19-13.25 70.59-14.68 71.99-16.1 71.99-18.05L71.99-18.05Q71.99-19.4 71.47-20.1 70.94-20.8 69.59-20.8L69.59-20.8Q67.54-20.8 66.12-19.3 64.69-17.8 63.97-15.4 63.24-13 63.24-10.3L63.24-10.3Q63.24-6.65 64.37-5.43 65.49-4.2 67.69-4.2L67.69-4.2Q69.99-4.2 71.72-4.93 73.44-5.65 74.69-6.45L74.69-6.45Q75.09-6.7 75.39-6.85 75.69-7 75.89-7L75.89-7Q76.14-7 76.29-6.8 76.44-6.6 76.44-6.35L76.44-6.35Q76.44-5.45 75.64-4.25 74.84-3.05 73.37-1.9 71.89-0.75 69.89 0.03 67.89 0.8 65.49 0.8ZM87.59 0.8L87.59 0.8Q83.74 0.8 81.64-1.63 79.54-4.05 79.54-8.3L79.54-8.3Q79.54-11.85 80.54-14.8 81.54-17.75 83.34-19.95 85.14-22.15 87.57-23.35 89.99-24.55 92.84-24.55L92.84-24.55Q96.24-24.55 98.04-23.1 99.84-21.65 99.84-18.95L99.84-18.95Q99.84-16.2 98.02-14.15 96.19-12.1 92.77-10.65 89.34-9.2 84.59-8.2L84.59-8.2 83.94-11.2Q86.69-11.55 88.99-12.4 91.29-13.25 92.69-14.68 94.09-16.1 94.09-18.05L94.09-18.05Q94.09-19.4 93.57-20.1 93.04-20.8 91.69-20.8L91.69-20.8Q89.64-20.8 88.22-19.3 86.79-17.8 86.07-15.4 85.34-13 85.34-10.3L85.34-10.3Q85.34-6.65 86.47-5.43 87.59-4.2 89.79-4.2L89.79-4.2Q92.09-4.2 93.82-4.93 95.54-5.65 96.79-6.45L96.79-6.45Q97.19-6.7 97.49-6.85 97.79-7 97.99-7L97.99-7Q98.24-7 98.39-6.8 98.54-6.6 98.54-6.35L98.54-6.35Q98.54-5.45 97.74-4.25 96.94-3.05 95.47-1.9 93.99-0.75 91.99 0.03 89.99 0.8 87.59 0.8ZM109.54 0.8L109.54 0.8Q107.44 0.8 106.16-0.78 104.89-2.35 104.59-5.35L104.59-5.35 103.49-16.55Q103.39-17.7 103.16-18.88 102.94-20.05 102.59-20.75L102.59-20.75Q102.24-21.45 101.99-21.73 101.74-22 101.74-22.4L101.74-22.4Q101.74-22.8 102.31-23.18 102.89-23.55 103.74-23.88 104.59-24.2 105.44-24.38 106.29-24.55 106.84-24.55L106.84-24.55Q107.74-24.55 108.29-23.6 108.84-22.65 109.14-19.85L109.14-19.85 110.44-7.15Q110.59-5.7 110.96-4.95 111.34-4.2 112.04-4.2L112.04-4.2Q112.59-4.2 113.56-4.9 114.54-5.6 115.56-7.25 116.59-8.9 117.29-11.65 117.99-14.4 117.99-18.5L117.99-18.5Q117.99-19.7 117.66-20.35 117.34-21 117.34-21.5L117.34-21.5Q117.34-21.95 117.89-22.5 118.44-23.05 119.26-23.5 120.09-23.95 120.91-24.25 121.74-24.55 122.24-24.55L122.24-24.55Q122.84-24.55 123.44-24.2 124.04-23.85 124.04-22.45L124.04-22.45Q124.04-20.05 123.34-16.98 122.64-13.9 121.36-10.8 120.09-7.7 118.29-5.05 116.49-2.4 114.29-0.8 112.09 0.8 109.54 0.8ZM153.13 0.8L153.13 0.8Q148.93 0.8 145.81-0.88 142.68-2.55 140.93-5.9 139.18-9.25 139.18-14.15L139.18-14.15Q139.18-18.65 140.61-22.43 142.03-26.2 144.63-28.98 147.23-31.75 150.83-33.27 154.43-34.8 158.83-34.8L158.83-34.8Q162.93-34.8 164.98-33.93 167.03-33.05 167.03-30.8L167.03-30.8Q167.03-29.6 166.61-28.75 166.18-27.9 165.68-27.9L165.68-27.9Q165.23-27.9 164.66-28.2 164.08-28.5 163.38-28.85L163.38-28.85Q162.18-29.45 160.76-30.13 159.33-30.8 156.98-30.8L156.98-30.8Q153.93-30.8 151.41-28.8 148.88-26.8 147.36-23.28 145.83-19.75 145.83-15.05L145.83-15.05Q145.83-11.1 147.01-8.45 148.18-5.8 150.13-4.5 152.08-3.2 154.38-3.2L154.38-3.2Q156.28-3.2 157.78-3.93 159.28-4.65 160.41-5.6 161.53-6.55 162.43-7.28 163.33-8 164.03-8L164.03-8Q164.58-8 164.96-7.75 165.33-7.5 165.33-6.7L165.33-6.7Q165.33-4.75 163.68-3.05 162.03-1.35 159.28-0.28 156.53 0.8 153.13 0.8ZM188.38 0.5L184.73 0.5Q184.33 0.5 184.06-0.03 183.78-0.55 183.68-1.2 183.58-1.85 183.58-2.25L183.58-2.25Q183.58-2.95 183.68-4.05 183.78-5.15 183.93-6.38 184.08-7.6 184.23-8.5L184.23-8.5 185.08-13.7Q185.23-14.7 185.38-15.58 185.53-16.45 185.53-17.45L185.53-17.45Q185.53-18.2 185.23-18.6 184.93-19 184.43-19L184.43-19Q183.78-19 182.31-17.78 180.83-16.55 179.16-14.25 177.48-11.95 176.11-8.68 174.73-5.4 174.33-1.25L174.33-1.25 173.08-8.75Q175.13-14.55 177.68-18 180.23-21.45 182.73-22.98 185.23-24.5 187.13-24.5L187.13-24.5Q189.33-24.5 190.33-23.23 191.33-21.95 191.33-19.95L191.33-19.95Q191.33-18.85 191.16-17.65 190.98-16.45 190.78-15.15L190.78-15.15 188.38 0.5ZM169.88 0.7L169.88 0.7Q169.23 0.7 168.91 0.43 168.58 0.15 168.58-0.8 168.58-1.75 168.78-3.75L168.78-3.75 170.93-23.45Q171.23-26.3 171.68-29.13 172.13-31.95 172.28-34.8L172.28-34.8 175.78-34.8Q176.78-34.8 177.26-33.45 177.73-32.1 177.73-30.7L177.73-30.7Q177.73-29.6 177.63-28.73 177.53-27.85 177.33-26.9 177.13-25.95 176.78-24.5L176.78-24.5 173.58-9.85 175.23-11.9Q174.88-8.7 174.68-5.85 174.48-3 174.33-1.25L174.33-1.25Q174.33-0.75 173.46-0.3 172.58 0.15 171.53 0.43 170.48 0.7 169.88 0.7ZM199.78 0.8L199.78 0.8Q196.98 0.8 195.78-1.48 194.58-3.75 194.58-7.85L194.58-7.85Q194.58-11.5 195.65-14.55 196.73-17.6 198.58-19.83 200.43-22.05 202.88-23.28 205.33-24.5 208.08-24.5L208.08-24.5Q210.23-24.5 212-23.93 213.78-23.35 215.03-22.75L215.03-22.75 213.58-17.5Q212.23-18.4 210.55-19.15 208.88-19.9 207.45-20.33 206.03-20.75 205.33-20.75L205.33-20.75Q203.93-20.75 202.75-19.38 201.58-18 200.9-15.58 200.23-13.15 200.23-10L200.23-10Q200.23-7.1 200.65-5.6 201.08-4.1 202.03-4.1L202.03-4.1Q202.68-4.1 204.23-5.58 205.78-7.05 207.98-10.5 210.18-13.95 212.63-19.85L212.63-19.85 214.03-15.4Q211.33-9.4 208.88-5.85 206.43-2.3 204.18-0.75 201.93 0.8 199.78 0.8ZM215.23 0.5L211.73 0.5Q210.73 0.5 210.53-0.48 210.33-1.45 210.33-2.55L210.33-2.55Q210.33-3.4 210.55-4.65 210.78-5.9 211.13-7.35 211.48-8.8 211.88-10.2L211.88-10.2 212.98-13.95 211.53-15.25 212.73-22.8Q214.33-23.05 215.55-23.45 216.78-23.85 217.6-24.15 218.43-24.45 218.78-24.45L218.78-24.45Q219.33-24.45 219.33-23.85L219.33-23.85Q219.33-23.6 218.7-21.73 218.08-19.85 217.35-16.95 216.63-14.05 216.28-10.65L216.28-10.65 215.23 0.5ZM226.38 0.65L226.38 0.65Q224.43 0.65 223.35-0.43 222.28-1.5 222.28-3.65L222.28-3.65Q222.28-4.4 222.3-5.15 222.33-5.9 222.45-6.95 222.58-8 222.78-9.65L222.78-9.65 224.68-24.55 228.18-24.55Q229.03-24.55 229.3-23.58 229.58-22.6 229.58-21.2L229.58-21.2Q229.58-20.15 229.43-18.45 229.28-16.75 228.98-14.7L228.98-14.7 228.38-10.6Q228.18-9.2 228.1-8.1 228.03-7 228.03-6.3L228.03-6.3Q228.03-5.3 228.25-4.78 228.48-4.25 229.13-4.25L229.13-4.25Q229.88-4.25 231.03-5.35 232.18-6.45 233.45-8.25 234.73-10.05 235.83-12.13 236.93-14.2 237.63-16.15 238.33-18.1 238.33-19.5L238.33-19.5Q238.33-20.65 238.05-21.43 237.78-22.2 237.83-22.7L237.83-22.7Q237.83-23.15 238.4-23.5 238.98-23.85 239.78-24.08 240.58-24.3 241.38-24.43 242.18-24.55 242.63-24.55L242.63-24.55Q243.48-24.55 243.95-23.55 244.43-22.55 244.23-20.7L244.23-20.7 241.88 0.5 238.38 0.5Q237.78 0.5 237.43-0.13 237.08-0.75 236.95-1.55 236.83-2.35 236.83-2.75L236.83-2.75Q236.83-3.9 237.15-5.25 237.48-6.6 238.1-8.7 238.73-10.8 239.63-14.1L239.63-14.1 239.63-13.25Q237.68-8.15 235.33-5.1 232.98-2.05 230.68-0.7 228.38 0.65 226.38 0.65ZM252.62 0.8L252.62 0.8Q249.92 0.8 248.75-1.4 247.57-3.6 247.57-7.85L247.57-7.85Q247.57-11.5 248.6-14.55 249.62-17.6 251.47-19.83 253.32-22.05 255.77-23.28 258.22-24.5 261.07-24.5L261.07-24.5Q262.82-24.5 264.55-23.93 266.27-23.35 267.52-22.75L267.52-22.75 265.92-17.85Q264.57-18.75 263.1-19.4 261.62-20.05 260.4-20.4 259.17-20.75 258.52-20.75L258.52-20.75Q257.07-20.75 255.87-19.38 254.67-18 253.95-15.58 253.22-13.15 253.22-10L253.22-10Q253.22-7.1 253.65-5.6 254.07-4.1 255.02-4.1L255.02-4.1Q255.82-4.1 257.5-5.58 259.17-7.05 261.4-10.5 263.62-13.95 266.07-19.85L266.07-19.85 267.52-15.4Q264.87-9.4 262.27-5.85 259.67-2.3 257.25-0.75 254.82 0.8 252.62 0.8ZM269.32 0.5L265.82 0.5Q265.27 0.5 264.87-0.13 264.47-0.75 264.27-1.65 264.07-2.55 264.07-3.3L264.07-3.3Q264.07-4.55 264.5-6.15 264.92-7.75 265.57-10.2L265.57-10.2 266.57-13.95 265.12-15.55 265.67-20.8 266.37-21.65 266.77-34.8 270.67-34.8Q271.42-34.8 271.9-34.15 272.37-33.5 272.6-32.63 272.82-31.75 272.82-30.95L272.82-30.95Q272.82-30.45 272.77-29.83 272.72-29.2 272.57-28.13 272.42-27.05 272.12-25.15L272.12-25.15 270.47-13.65Q270.12-11.25 269.87-8.75 269.62-6.25 269.5-3.9 269.37-1.55 269.32 0.5L269.32 0.5ZM295.42 0.5L291.77 0.5Q291.37 0.5 291.1-0.03 290.82-0.55 290.72-1.2 290.62-1.85 290.62-2.25L290.62-2.25Q290.62-2.95 290.72-4.05 290.82-5.15 290.97-6.38 291.12-7.6 291.27-8.5L291.27-8.5 292.12-13.7Q292.27-14.7 292.42-15.58 292.57-16.45 292.57-17.45L292.57-17.45Q292.57-18.2 292.27-18.6 291.97-19 291.47-19L291.47-19Q290.82-19 289.35-17.78 287.87-16.55 286.2-14.25 284.52-11.95 283.15-8.68 281.77-5.4 281.37-1.25L281.37-1.25 280.12-8.75Q282.17-14.55 284.72-18 287.27-21.45 289.77-22.98 292.27-24.5 294.17-24.5L294.17-24.5Q296.37-24.5 297.37-23.23 298.37-21.95 298.37-19.95L298.37-19.95Q298.37-18.85 298.2-17.65 298.02-16.45 297.82-15.15L297.82-15.15 295.42 0.5ZM276.92 0.7L276.92 0.7Q276.27 0.7 275.95 0.43 275.62 0.15 275.62-0.8 275.62-1.75 275.82-3.75L275.82-3.75 277.97-23.45Q278.27-26.3 278.72-29.13 279.17-31.95 279.32-34.8L279.32-34.8 282.82-34.8Q283.82-34.8 284.3-33.45 284.77-32.1 284.77-30.7L284.77-30.7Q284.77-29.6 284.67-28.73 284.57-27.85 284.37-26.9 284.17-25.95 283.82-24.5L283.82-24.5 280.62-9.85 282.27-11.9Q281.92-8.7 281.72-5.85 281.52-3 281.37-1.25L281.37-1.25Q281.37-0.75 280.5-0.3 279.62 0.15 278.57 0.43 277.52 0.7 276.92 0.7ZM306.82 0.8L306.82 0.8Q304.02 0.8 302.82-1.48 301.62-3.75 301.62-7.85L301.62-7.85Q301.62-11.5 302.69-14.55 303.77-17.6 305.62-19.83 307.47-22.05 309.92-23.28 312.37-24.5 315.12-24.5L315.12-24.5Q317.27-24.5 319.04-23.93 320.82-23.35 322.07-22.75L322.07-22.75 320.62-17.5Q319.27-18.4 317.59-19.15 315.92-19.9 314.49-20.33 313.07-20.75 312.37-20.75L312.37-20.75Q310.97-20.75 309.79-19.38 308.62-18 307.94-15.58 307.27-13.15 307.27-10L307.27-10Q307.27-7.1 307.69-5.6 308.12-4.1 309.07-4.1L309.07-4.1Q309.72-4.1 311.27-5.58 312.82-7.05 315.02-10.5 317.22-13.95 319.67-19.85L319.67-19.85 321.07-15.4Q318.37-9.4 315.92-5.85 313.47-2.3 311.22-0.75 308.97 0.8 306.82 0.8ZM322.27 0.5L318.77 0.5Q317.77 0.5 317.57-0.48 317.37-1.45 317.37-2.55L317.37-2.55Q317.37-3.4 317.59-4.65 317.82-5.9 318.17-7.35 318.52-8.8 318.92-10.2L318.92-10.2 320.02-13.95 318.57-15.25 319.77-22.8Q321.37-23.05 322.59-23.45 323.82-23.85 324.64-24.15 325.47-24.45 325.82-24.45L325.82-24.45Q326.37-24.45 326.37-23.85L326.37-23.85Q326.37-23.6 325.74-21.73 325.12-19.85 324.39-16.95 323.67-14.05 323.32-10.65L323.32-10.65 322.27 0.5ZM334.47-1.2L334.47-1.2 333.27-8.75Q335.12-13.55 337.04-17.07 338.97-20.6 340.97-22.55 342.97-24.5 345.02-24.5L345.02-24.5Q346.17-24.5 346.67-23.78 347.17-23.05 347.17-21.95L347.17-21.95Q347.17-20.95 346.94-20.03 346.72-19.1 346.29-18.5 345.87-17.9 345.27-17.9L345.27-17.9Q344.72-17.9 344.04-18.25 343.37-18.6 342.22-18.6L342.22-18.6Q341.47-18.6 340.32-17.05 339.17-15.5 337.94-12.93 336.72-10.35 335.77-7.28 334.82-4.2 334.47-1.2ZM330.27 0.7L330.27 0.7Q329.62 0.7 329.29 0.48 328.97 0.25 328.94-0.7 328.92-1.65 329.17-3.75L329.17-3.75 331.52-24.55 335.02-24.55Q335.77-24.55 336.37-23.45 336.97-22.35 336.97-20.95L336.97-20.95Q336.97-20.3 336.59-18.93 336.22-17.55 335.72-16.03 335.22-14.5 334.82-13.35L334.82-13.35 333.52-9.25 335.37-9.55 334.47-1.2Q334.42-0.7 333.87-0.33 333.32 0.05 332.59 0.28 331.87 0.5 331.22 0.6 330.57 0.7 330.27 0.7ZM354.86 11.05L354.86 11.05Q352.71 11.05 351.06 10.38 349.41 9.7 348.46 8.2 347.51 6.7 347.51 4.2L347.51 4.2Q347.51 3.7 347.69 3.53 347.86 3.35 348.06 3.35L348.06 3.35Q348.31 3.35 348.66 3.55 349.01 3.75 349.66 4.15L349.66 4.15Q350.56 4.75 351.74 5.43 352.91 6.1 354.26 6.6 355.61 7.1 356.91 7.1L356.91 7.1Q358.21 7.1 359.31 6.28 360.41 5.45 361.39 3.4 362.36 1.35 363.26-2.25L363.26-2.25 366.06-13.65 366.36-13.7Q364.51-8.8 362.09-5.63 359.66-2.45 357.19-0.93 354.71 0.6 352.71 0.6L352.71 0.6Q350.61 0.6 349.61-0.55 348.61-1.7 348.61-3.75L348.61-3.75Q348.61-4.75 348.74-5.95 348.86-7.15 349.16-9.7L349.16-9.7 351.01-24.55 354.51-24.55Q355.36-24.55 355.81-23.58 356.26-22.6 356.26-21.2L356.26-21.2Q356.26-20.2 356.16-19.43 356.06-18.65 355.89-17.68 355.71-16.7 355.41-14.9L355.41-14.9 354.71-10.6Q354.51-9.2 354.39-8.13 354.26-7.05 354.26-6.35L354.26-6.35Q354.26-5.3 354.49-4.78 354.71-4.25 355.51-4.25L355.51-4.25Q356.36-4.25 357.49-5.35 358.61-6.45 359.81-8.2 361.01-9.95 362.04-11.95 363.06-13.95 363.71-15.83 364.36-17.7 364.36-18.95L364.36-18.95Q364.36-19.8 364.21-20.78 364.06-21.75 364.06-22.5L364.06-22.5Q364.06-23.1 365.04-23.58 366.01-24.05 367.24-24.3 368.46-24.55 369.16-24.55L369.16-24.55Q369.86-24.55 370.29-23.9 370.71-23.25 370.71-21.45L370.71-21.45Q370.71-20.6 370.44-18.93 370.16-17.25 370.06-15.8L370.06-15.8 368.81-1.5Q368.51 1.75 367.19 4.13 365.86 6.5 363.86 8.03 361.86 9.55 359.51 10.3 357.16 11.05 354.86 11.05Z" opacity="1" transform="matrix(1,0,0,1,0,0)" fill="#ffffff" class="wordmark-text-0" data-fill-palette-color="quaternary" id="text-0"></path></svg></g></svg></g></svg></g></svg></g><g></g></svg></g><defs></defs></svg><rect width="395.52" height="87.75456866328257" fill="none" stroke="none" visibility="hidden"></rect></g></svg></g></svg>